<svg xmlns="http://www.w3.org/2000/svg" viewBox="0 0 322590 333333" shape-rendering="geometricPrecision" text-rendering="geometricPrecision" image-rendering="optimizeQuality" fill-rule="evenodd" clip-rule="evenodd"><path d="M116142 65882c-1586 1586-4158 1586-5744 0s-1586-4158 0-5744c3007-3007 1590-5656-54-8725-3036-5671-6514-12168-581-22443 1122-1937 3602-2597 5538-1476 1937 1122 2597 3602 1476 5538-3680 6374-1337 10751 708 14572 3170 5921 5905 11029-1343 18277zm206103 261452c932 2191-89 4722-2279 5654-2191 932-4722-89-5654-2279l-75165-175228c-692 933-1443 1885-2259 2861-2531 3028-5737 6339-9822 10084l56027 140287c876 2209-205 4711-2414 5587s-4711-204-5587-2413l-56309-140994c-4445 3124-9112 5850-13943 8178-13683 6591-28693 9960-43721 10069-15005 109-30033-3044-43776-9497-4637-2177-9126-4729-13418-7654L46933 317326c-867 2219-3368 3314-5587 2447s-3314-3369-2447-5587l56665-144504c-3543-3059-6996-6297-9989-9646-1370-1533-2638-3086-3769-4650L8278 327875c-932 2191-3464 3211-5654 2279s-3211-3464-2279-5654l76762-180076c-6738-10431-11931-22698-15039-36814H47834c-1879 0-3402-2418-3402-5401s1523-5401 3402-5401h12319c-504-3702-876-7515-1103-11442-8-148-9-295-2-441l6-143c62-1288 570-2617 1342-3629l-3-2c997-1298 2506-2254 4287-2356 153-8 304-8 453-1l191370 406v-17c71 0 41 7 340 20 1161 52 2315 373 3300 1052 1414 972 2295 2406 2291 4405l-2 101h2l-2 65-3 84h3c-187 4085-539 8050-1043 11898h12051c1879 0 3402 2418 3402 5401s-1523 5401-3402 5401h-13921c-3120 14313-8489 26767-15509 37342l78234 182381zM139310 217149c1450 10292 3696 18094 7505 20975 67-3494 422-6928 1094-10288 2204-11006 5737-11593 9143-19728 1671-3994 2129-8259 1117-12893 12192 2111 23517 20497 26364 43872 3035-3965 4852-8543 5195-13854 5377 5506 8046 12054 9043 19242 2015 13755-2207 22670-13370 26200 2485-5704 1909-10106-691-15922-1102-2463-2537-4615-4356-6406-796 5646-2028 9928-4118 11509-37-1918-232-3802-600-5646-1209-6040-3148-6361-5017-10826-917-2192-1169-4532-613-7076-6690 1158-12906 11248-14467 24075-1667-2175-2663-4687-2851-7602-2952 3021-4416 6614-4963 10559-555 3790-247 6909 973 9323-8580-985-14337-5764-17978-13486-5221-11058-4289-19302 652-30353 2005-4489 4623-8410 7938-11675zm-9032 66083l-2907 10593c-365 1330 415 2750 1733 3159l10138 3130-10138 3129c-1319 407-2099 1829-1733 3159l2907 10591c364 1331 1741 2087 3061 1679l33018-10191 33017 10191c1320 408 2696-348 3062-1679l2906-10591c365-1330-415-2752-1733-3158l-10140-3130 10140-3130c1319-408 2099-1829 1733-3159l-2906-10592c-365-1330-1742-2085-3062-1679l-33018 10191-33017-10191c-1319-407-2697 348-3061 1679zM90648 113891c-581-1271-21-2773 1250-3354s2773-21 3354 1250c2422 5320 5276 10403 8385 15015 3125 4636 6482 8755 9889 12119 997 981 1010 2585 30 3581-980 997-2585 1010-3581 30-3670-3624-7250-8006-10544-12892-3235-4799-6224-10130-8782-15749zm162986-26087l-185805-393c3267 43352 25312 71361 53159 84435 12570 5902 26335 8786 40096 8686 13738-100 27472-3186 40008-9224 27762-13372 49606-41324 52541-83503zm-72747-45101c1586 1586 1586 4158 0 5744s-4158 1586-5744 0c-7248-7248-4513-12356-1344-18277 2046-3820 4389-8198 709-14572-1122-1937-461-4417 1476-5538s4417-461 5538 1476c5932 10275 2454 16771-582 22443-1643 3069-3061 5717-53 8725zm31402 17436c1586 1586 1586 4158 0 5744s-4158 1586-5744 0c-7248-7248-4513-12356-1343-18277 2046-3820 4389-8198 709-14572-1122-1937-461-4417 1476-5538s4417-461 5538 1476c5933 10275 2455 16771-582 22443-1643 3069-3060 5717-53 8725zm-64745-21204c-1586 1586-4158 1586-5744 0s-1586-4158 0-5744c3007-3007 1590-5656-53-8725-3036-5671-6514-12168-582-22443 1122-1937 3602-2597 5538-1476 1937 1122 2597 3602 1476 5538-3680 6374-1337 10752 708 14572 3170 5921 5904 11030-1343 18277z" fill-rule="nonzero"/></svg>